<?xml version="1.0" encoding="UTF-8" standalone="no"?>
<!DOCTYPE svg  PUBLIC '-//W3C//DTD SVG 20010904//EN'  'http://www.w3.org/TR/2001/REC-SVG-20010904/DTD/svg10.dtd'>
<svg xmlns="http://www.w3.org/2000/svg" height="192pt" width="192pt" version="1.0" preserveAspectRatio="xMidYMid meet" viewBox="0 0 192.000000 192.000000">
    <g transform="translate(0 192) scale(0.1 -0.1)" fill="#5f5f5f">
        <path d="m1.35e3 1.78e3c-43-22-80-91-80-148 1-86 62-164 136-170 55-4 115 32 139 83 17 37 24 42 52 42 45 0 48 14 10 43-21 16-38 41-45 66-25 82-133 125-212 84z"/>
        <path d="m1.05e3 1.35e3l-223-91v-189-188h80 80v134 133l71 31c70 31 71 31 66 9-3-12-51-256-107-542s-104-530-107-542c-5-23-3-23 80-23h85l15 68c8 37 39 178 69 314 29 137 56 248 61 248 4 0 43-34 87-76l80-77v-238-239h80 80v302 303l-81 81-82 82 23 116c12 64 23 116 24 116s26-22 56-50c91-84 244-149 353-150h27v79 79l-55 7c-76 9-182 64-237 123-24 26-64 81-88 122-23 41-52 86-64 99-27 30-76 51-118 51-18-1-133-42-255-92z"/>
        <path d="m264 1.11e3c-5-19-2-30 9-39 8-6 18-27 22-47 6-31-13-83-139-392-80-197-146-360-146-364 0-13 182-114 189-105 4 4 63 145 130 311 144 359 172 421 178 404 3-6-59-168-136-360-77-191-142-353-143-360-2-8 24-24 67-42l70-28 5 58c6 65 27 101 81 138 33 23 56 25 133 10 16-2 37 40 137 281l119 285-31 32c-27 28-31 38-26 68l6 35-99 55-98 56-123 10c-68 6-141 13-161 16-34 5-38 3-44-22z"/>
        <path d="m454 261c-21-13-38-36-49-65-24-62-9-118 38-146 39-24 59-25 104-3 47 22 73 66 73 126 0 40-5 54-29 78-36 35-89 39-137 10z"/>
    </g>
</svg>